<mxfile host="app.diagrams.net" modified="2024-07-15T09:28:35.637Z" agent="Mozilla/5.0 (Windows NT 10.0; Win64; x64) AppleWebKit/537.36 (KHTML, like Gecko) Chrome/126.0.0.0 Safari/537.36" version="24.4.13" etag="DKeoSeDQXUWYdUCeA_4s" type="github">
  <diagram name="Page-1" id="Y89-gl0UcrXUQfyGoqZt">
    <mxGraphModel>
      <root>
        <mxCell id="0" />
        <mxCell id="1" parent="0" />
      </root>
    </mxGraphModel>
  </diagram>
</mxfile>
